<svg width="64" height="51" viewBox="0 0 64 51" fill="none" xmlns="http://www.w3.org/2000/svg">
<circle cx="25.5" cy="25.5" r="25.5" fill="#159EBC"/>
<circle cx="25.5" cy="25.5" r="23.5" fill="#35ABC6"/>
<circle cx="25.5" cy="25.5" r="19.5" fill="#D6D6D6"/>
<path d="M14.47 18.35L14.35 16.1C14.35 15.98 14.84 15.73 15.82 15.35C16.82 14.95 17.39 14.75 17.53 14.75L18.28 15.08C18.4 15.08 18.56 15.08 18.76 15.08C18.98 15.06 19.31 15.04 19.75 15.02C20.75 15 21.24 14.98 21.22 14.96C22.64 15.24 23.35 15.51 23.35 15.77C23.35 16.31 23.41 17.07 23.53 18.05C23.65 19.01 23.83 19.62 24.07 19.88C24.07 19.92 23.94 20.11 23.68 20.45C23.42 20.79 23.29 21.11 23.29 21.41C23.29 21.51 23.43 21.62 23.71 21.74C23.99 21.86 24.13 21.95 24.13 22.01C24.33 24.03 24.48 25.13 24.58 25.31C24.7 25.49 24.91 25.58 25.21 25.58C25.29 25.58 25.36 25.46 25.42 25.22C25.64 24.3 25.81 23.78 25.93 23.66C26.15 21.46 26.33 20.28 26.47 20.12C27.07 19.8 27.37 19.48 27.37 19.16C27.37 18.98 27.27 18.79 27.07 18.59C26.87 18.37 26.77 18.24 26.77 18.2C26.77 18.14 26.89 17.74 27.13 17C27.37 16.24 27.54 15.81 27.64 15.71C27.76 15.59 28.53 15.36 29.95 15.02C31.37 14.66 32.26 14.48 32.62 14.48C35.08 14.58 36.31 14.8 36.31 15.14C35.93 16.6 35.74 17.44 35.74 17.66C35.74 17.88 35.75 17.99 35.77 17.99C35.95 17.99 36.04 19.04 36.04 21.14V21.68C36.04 21.72 35.96 21.78 35.8 21.86C35.3 22.16 35.05 22.53 35.05 22.97C35.05 22.99 35.2 23.12 35.5 23.36C35.8 23.58 35.95 23.75 35.95 23.87V23.9C35.75 24.82 35.65 26.65 35.65 29.39L35.68 31.31C35.78 31.53 35.83 31.9 35.83 32.42V32.75C35.83 32.81 35.69 32.98 35.41 33.26C35.15 33.54 35.02 33.74 35.02 33.86C35.02 34.12 35.31 34.29 35.89 34.37C35.89 34.83 36.1 35.57 36.52 36.59L36.73 37.1C36.73 37.28 36.15 37.58 34.99 38C33.85 38.42 32.94 38.63 32.26 38.63C32.02 38.63 31.5 38.46 30.7 38.12C29.9 37.8 29.5 37.56 29.5 37.4L29.98 34.82L29.86 31.04C29.86 31.02 29.98 30.88 30.22 30.62C30.48 30.34 30.61 30.11 30.61 29.93C30.61 29.73 30.55 29.57 30.43 29.45C30.33 29.31 30.22 29.22 30.1 29.18C29.98 29.12 29.92 29.08 29.92 29.06C29.92 28.82 30.04 28.42 30.28 27.86C30.28 27.34 30.24 26.44 30.16 25.16C30.1 23.86 30.03 23.21 29.95 23.21L29.44 23.45C29.38 23.51 29.11 24.55 28.63 26.57C28.15 28.57 27.91 29.62 27.91 29.72C27.91 29.82 27.96 29.99 28.06 30.23C28.16 30.47 28.21 30.64 28.21 30.74C28.21 30.82 28.15 30.92 28.03 31.04C27.93 31.14 27.8 31.25 27.64 31.37C27.48 31.49 27.38 31.57 27.34 31.61L27.19 32.09C27.19 32.23 27.28 32.4 27.46 32.6C27.64 32.78 27.73 32.9 27.73 32.96C27.73 33 27.58 33.23 27.28 33.65C27 34.05 26.6 34.47 26.08 34.91C25.58 35.35 25.13 35.57 24.73 35.57C24.35 35.57 23.68 35.43 22.72 35.15C21.76 34.85 21.28 34.62 21.28 34.46L21.01 33.05C21.01 33.03 21.08 32.99 21.22 32.93C21.66 32.75 21.88 32.5 21.88 32.18C21.88 31.96 21.67 31.81 21.25 31.73C20.85 31.65 20.65 31.55 20.65 31.43C20.65 30.11 20.3 28.02 19.6 25.16L19.27 23.75C19.25 23.75 19.24 23.75 19.24 23.75C19.24 23.73 19.23 23.72 19.21 23.72L18.85 23.9C18.71 24.04 18.64 25.03 18.64 26.87L18.73 31.28C18.95 31.96 19.06 32.41 19.06 32.63C19.06 32.83 19.05 32.94 19.03 32.96C18.55 33.3 18.31 33.66 18.31 34.04V34.16C18.31 34.26 18.39 34.36 18.55 34.46C18.73 34.54 18.84 34.6 18.88 34.64C18.92 34.72 18.94 34.82 18.94 34.94L18.91 35.69L19.06 36.89C19.06 37.15 19 37.29 18.88 37.31L17.74 37.82C16.96 38.16 16.47 38.33 16.27 38.33C16.07 38.33 15.57 38.19 14.77 37.91C13.99 37.63 13.6 37.41 13.6 37.25C13.6 37.21 13.67 36.93 13.81 36.41C14.25 34.77 14.47 33.33 14.47 32.09C14.47 32.07 14.36 32 14.14 31.88C13.92 31.76 13.81 31.67 13.81 31.61L14.44 28.46C14.38 28.12 14.35 26.5 14.35 23.6V22.13C14.35 22.11 14.42 22.06 14.56 21.98C14.94 21.7 15.13 21.46 15.13 21.26C15.13 21.04 15.1 20.87 15.04 20.75C14.98 20.63 14.9 20.53 14.8 20.45C14.72 20.37 14.63 20.3 14.53 20.24C14.45 20.18 14.38 20.14 14.32 20.12C14.28 20.08 14.29 19.97 14.35 19.79C14.43 19.61 14.47 19.13 14.47 18.35Z" fill="#0CA4C6"/>
<path d="M14.47 16.35L14.35 14.1C14.35 13.98 14.84 13.73 15.82 13.35C16.82 12.95 17.39 12.75 17.53 12.75L18.28 13.08C18.4 13.08 18.56 13.08 18.76 13.08C18.98 13.06 19.31 13.04 19.75 13.02C20.75 13 21.24 12.98 21.22 12.96C22.64 13.24 23.35 13.51 23.35 13.77C23.35 14.31 23.41 15.07 23.53 16.05C23.65 17.01 23.83 17.62 24.07 17.88C24.07 17.92 23.94 18.11 23.68 18.45C23.42 18.79 23.29 19.11 23.29 19.41C23.29 19.51 23.43 19.62 23.71 19.74C23.99 19.86 24.13 19.95 24.13 20.01C24.33 22.03 24.48 23.13 24.58 23.31C24.7 23.49 24.91 23.58 25.21 23.58C25.29 23.58 25.36 23.46 25.42 23.22C25.64 22.3 25.81 21.78 25.93 21.66C26.15 19.46 26.33 18.28 26.47 18.12C27.07 17.8 27.37 17.48 27.37 17.16C27.37 16.98 27.27 16.79 27.07 16.59C26.87 16.37 26.77 16.24 26.77 16.2C26.77 16.14 26.89 15.74 27.13 15C27.37 14.24 27.54 13.81 27.64 13.71C27.76 13.59 28.53 13.36 29.95 13.02C31.37 12.66 32.26 12.48 32.62 12.48C35.08 12.58 36.31 12.8 36.31 13.14C35.93 14.6 35.74 15.44 35.74 15.66C35.74 15.88 35.75 15.99 35.77 15.99C35.95 15.99 36.04 17.04 36.04 19.14V19.68C36.04 19.72 35.96 19.78 35.8 19.86C35.3 20.16 35.05 20.53 35.05 20.97C35.05 20.99 35.2 21.12 35.5 21.36C35.8 21.58 35.95 21.75 35.95 21.87V21.9C35.75 22.82 35.65 24.65 35.65 27.39L35.68 29.31C35.78 29.53 35.83 29.9 35.83 30.42V30.75C35.83 30.81 35.69 30.98 35.41 31.26C35.15 31.54 35.02 31.74 35.02 31.86C35.02 32.12 35.31 32.29 35.89 32.37C35.89 32.83 36.1 33.57 36.52 34.59L36.73 35.1C36.73 35.28 36.15 35.58 34.99 36C33.85 36.42 32.94 36.63 32.26 36.63C32.02 36.63 31.5 36.46 30.7 36.12C29.9 35.8 29.5 35.56 29.5 35.4L29.98 32.82L29.86 29.04C29.86 29.02 29.98 28.88 30.22 28.62C30.48 28.34 30.61 28.11 30.61 27.93C30.61 27.73 30.55 27.57 30.43 27.45C30.33 27.31 30.22 27.22 30.1 27.18C29.98 27.12 29.92 27.08 29.92 27.06C29.92 26.82 30.04 26.42 30.28 25.86C30.28 25.34 30.24 24.44 30.16 23.16C30.1 21.86 30.03 21.21 29.95 21.21L29.44 21.45C29.38 21.51 29.11 22.55 28.63 24.57C28.15 26.57 27.91 27.62 27.91 27.72C27.91 27.82 27.96 27.99 28.06 28.23C28.16 28.47 28.21 28.64 28.21 28.74C28.21 28.82 28.15 28.92 28.03 29.04C27.93 29.14 27.8 29.25 27.64 29.37C27.48 29.49 27.38 29.57 27.34 29.61L27.19 30.09C27.19 30.23 27.28 30.4 27.46 30.6C27.64 30.78 27.73 30.9 27.73 30.96C27.73 31 27.58 31.23 27.28 31.65C27 32.05 26.6 32.47 26.08 32.91C25.58 33.35 25.13 33.57 24.73 33.57C24.35 33.57 23.68 33.43 22.72 33.15C21.76 32.85 21.28 32.62 21.28 32.46L21.01 31.05C21.01 31.03 21.08 30.99 21.22 30.93C21.66 30.75 21.88 30.5 21.88 30.18C21.88 29.96 21.67 29.81 21.25 29.73C20.85 29.65 20.65 29.55 20.65 29.43C20.65 28.11 20.3 26.02 19.6 23.16L19.27 21.75C19.25 21.75 19.24 21.75 19.24 21.75C19.24 21.73 19.23 21.72 19.21 21.72L18.85 21.9C18.71 22.04 18.64 23.03 18.64 24.87L18.73 29.28C18.95 29.96 19.06 30.41 19.06 30.63C19.06 30.83 19.05 30.94 19.03 30.96C18.55 31.3 18.31 31.66 18.31 32.04V32.16C18.31 32.26 18.39 32.36 18.55 32.46C18.73 32.54 18.84 32.6 18.88 32.64C18.92 32.72 18.94 32.82 18.94 32.94L18.91 33.69L19.06 34.89C19.06 35.15 19 35.29 18.88 35.31L17.74 35.82C16.96 36.16 16.47 36.33 16.27 36.33C16.07 36.33 15.57 36.19 14.77 35.91C13.99 35.63 13.6 35.41 13.6 35.25C13.6 35.21 13.67 34.93 13.81 34.41C14.25 32.77 14.47 31.33 14.47 30.09C14.47 30.07 14.36 30 14.14 29.88C13.92 29.76 13.81 29.67 13.81 29.61L14.44 26.46C14.38 26.12 14.35 24.5 14.35 21.6V20.13C14.35 20.11 14.42 20.06 14.56 19.98C14.94 19.7 15.13 19.46 15.13 19.26C15.13 19.04 15.1 18.87 15.04 18.75C14.98 18.63 14.9 18.53 14.8 18.45C14.72 18.37 14.63 18.3 14.53 18.24C14.45 18.18 14.38 18.14 14.32 18.12C14.28 18.08 14.29 17.97 14.35 17.79C14.43 17.61 14.47 17.13 14.47 16.35Z" fill="#12C2E9"/>
</svg>
