<svg width="1098" height="794" viewBox="0 0 1098 794" fill="none" xmlns="http://www.w3.org/2000/svg">
<path d="M1022.04 136.751H279.179C267.781 136.751 258.541 146.048 258.541 157.515V650.136C258.541 661.603 267.781 670.9 279.179 670.9H1022.04C1033.43 670.9 1042.67 661.603 1042.67 650.136V157.515C1042.67 146.048 1033.43 136.751 1022.04 136.751Z" fill="black" fill-opacity="0.05"/>
<path d="M998.097 103.033H255.24C243.842 103.033 234.602 112.329 234.602 123.797V616.417C234.602 627.885 243.842 637.181 255.24 637.181H998.097C1009.5 637.181 1018.74 627.885 1018.74 616.417V123.797C1018.74 112.329 1009.5 103.033 998.097 103.033Z" stroke="#3F3D56" stroke-miterlimit="10"/>
<path d="M234.602 154.243H1018.74" stroke="#3F3D56" stroke-miterlimit="10"/>
<path opacity="0.25" d="M909.582 274.303H710.819C706.652 274.303 703.273 277.702 703.273 281.895V299.894C703.273 304.087 706.652 307.486 710.819 307.486H909.582C913.749 307.486 917.128 304.087 917.128 299.894V281.895C917.128 277.702 913.749 274.303 909.582 274.303Z" fill="#12C2E9"/>
<path opacity="0.25" d="M950.544 366.36H669.857C665.69 366.36 662.311 369.759 662.311 373.952V385.529C662.311 389.722 665.69 393.121 669.857 393.121H950.544C954.712 393.121 958.09 389.722 958.09 385.529V373.952C958.09 369.759 954.712 366.36 950.544 366.36Z" fill="#12C2E9"/>
<path opacity="0.25" d="M950.544 439.15H669.857C665.69 439.15 662.311 442.549 662.311 446.742V458.319C662.311 462.512 665.69 465.911 669.857 465.911H950.544C954.712 465.911 958.09 462.512 958.09 458.319V446.742C958.09 442.549 954.712 439.15 950.544 439.15Z" fill="#12C2E9"/>
<path opacity="0.25" d="M950.544 511.94H669.857C665.69 511.94 662.311 515.339 662.311 519.532V531.109C662.311 535.302 665.69 538.701 669.857 538.701H950.544C954.712 538.701 958.09 535.302 958.09 531.109V519.532C958.09 515.339 954.712 511.94 950.544 511.94Z" fill="#12C2E9"/>
<path d="M920.221 263.598H721.459C717.291 263.598 713.913 266.997 713.913 271.19V289.19C713.913 293.383 717.291 296.782 721.459 296.782H920.221C924.389 296.782 927.768 293.383 927.768 289.19V271.19C927.768 266.997 924.389 263.598 920.221 263.598Z" stroke="#3F3D56" stroke-miterlimit="10"/>
<path d="M961.184 355.656H680.497C676.329 355.656 672.951 359.055 672.951 363.248V374.825C672.951 379.018 676.329 382.417 680.497 382.417H961.184C965.351 382.417 968.73 379.018 968.73 374.825V363.248C968.73 359.055 965.351 355.656 961.184 355.656Z" stroke="#3F3D56" stroke-miterlimit="10"/>
<path d="M961.184 428.446H680.497C676.329 428.446 672.951 431.845 672.951 436.038V447.614C672.951 451.807 676.329 455.207 680.497 455.207H961.184C965.351 455.207 968.73 451.807 968.73 447.614V436.038C968.73 431.845 965.351 428.446 961.184 428.446Z" stroke="#3F3D56" stroke-miterlimit="10"/>
<path d="M961.184 501.235H680.497C676.329 501.235 672.951 504.634 672.951 508.827V520.404C672.951 524.597 676.329 527.996 680.497 527.996H961.184C965.351 527.996 968.73 524.597 968.73 520.404V508.827C968.73 504.634 965.351 501.235 961.184 501.235Z" stroke="#3F3D56" stroke-miterlimit="10"/>
<path opacity="0.3" d="M294.183 151.202C302.997 151.202 310.142 144.013 310.142 135.146C310.142 126.278 302.997 119.089 294.183 119.089C285.369 119.089 278.224 126.278 278.224 135.146C278.224 144.013 285.369 151.202 294.183 151.202Z" fill="#12C2E9"/>
<path opacity="0.3" d="M338.869 151.202C347.683 151.202 354.829 144.013 354.829 135.146C354.829 126.278 347.683 119.089 338.869 119.089C330.055 119.089 322.91 126.278 322.91 135.146C322.91 144.013 330.055 151.202 338.869 151.202Z" fill="#12C2E9"/>
<path opacity="0.3" d="M383.555 151.202C392.369 151.202 399.515 144.013 399.515 135.146C399.515 126.278 392.369 119.089 383.555 119.089C374.741 119.089 367.596 126.278 367.596 135.146C367.596 144.013 374.741 151.202 383.555 151.202Z" fill="#12C2E9"/>
<path d="M300.567 144.78C309.381 144.78 316.526 137.591 316.526 128.723C316.526 119.855 309.381 112.667 300.567 112.667C291.753 112.667 284.608 119.855 284.608 128.723C284.608 137.591 291.753 144.78 300.567 144.78Z" stroke="#3F3D56" stroke-miterlimit="10"/>
<path d="M345.253 144.78C354.067 144.78 361.212 137.591 361.212 128.723C361.212 119.855 354.067 112.667 345.253 112.667C336.439 112.667 329.294 119.855 329.294 128.723C329.294 137.591 336.439 144.78 345.253 144.78Z" stroke="#3F3D56" stroke-miterlimit="10"/>
<path d="M389.939 144.78C398.753 144.78 405.898 137.591 405.898 128.723C405.898 119.855 398.753 112.667 389.939 112.667C381.125 112.667 373.98 119.855 373.98 128.723C373.98 137.591 381.125 144.78 389.939 144.78Z" stroke="#3F3D56" stroke-miterlimit="10"/>
<path d="M482.348 614.702C479.676 602.318 478.967 585.404 479.866 573.639C479.866 573.639 466.355 513.923 455.725 508.352L455.722 508.355C455.559 508.566 450.4 515.37 449.745 536.427C449.081 557.817 441.553 571.854 441.553 571.854C441.553 571.854 443.989 598.516 442.596 614.702H482.348Z" fill="#1A9EBC"/>
<path d="M580.63 234.696H335.434C332.113 234.696 328.824 235.355 325.756 236.633C322.687 237.912 319.899 239.786 317.55 242.149C315.202 244.512 313.339 247.317 312.068 250.405C310.797 253.492 310.142 256.801 310.142 260.142V589.256C310.142 592.597 310.797 595.906 312.068 598.993C313.339 602.081 315.202 604.886 317.55 607.249C319.899 609.612 322.687 611.486 325.756 612.765C328.824 614.043 332.113 614.702 335.434 614.702H421.46C418.588 602.713 415.016 583.99 418.633 570.972L418.631 570.963L418.634 570.969C418.803 570.361 418.982 569.762 419.183 569.181C421.667 560.732 422.496 551.878 421.621 543.111C423.218 535.621 423.218 527.874 421.621 520.384C418.964 507.907 417.103 495.651 417.103 495.651C417.103 495.651 415.638 479.164 416.917 469.057C416.946 468.835 416.979 468.624 417.01 468.409C416.558 468.306 416.305 468.246 416.305 468.246C416.305 468.246 420.07 451.089 421.399 440.171C421.712 437.594 422.125 434.326 422.572 430.842C421.346 430.637 420.138 430.329 418.963 429.921C407.003 425.688 403.238 387.363 403.238 387.363V375.22C403.238 375.22 399.252 356.615 413.204 348.371C426.64 340.432 432.004 338.259 432.383 338.109C432.486 338.035 432.586 337.968 432.69 337.887C434.209 336.688 435.411 335.132 436.19 333.355C436.209 333.049 436.213 332.745 436.203 332.443C435.976 328.09 432.964 324.131 430.106 320.677C427.669 317.73 425.231 314.784 422.793 311.838C421.958 310.96 421.316 309.915 420.91 308.771C420.756 308.14 420.689 307.49 420.711 306.84C420.709 306.6 420.71 306.359 420.715 306.12C420.755 303.923 420.814 301.727 420.893 299.531C420.962 297.612 421.442 295.192 423.309 294.797C424.28 294.592 425.566 294.95 426.079 294.095C426.252 293.743 426.296 293.342 426.204 292.96C426.197 292.989 426.196 293.018 426.188 293.046C426.181 293.011 426.175 292.975 426.169 292.939C425.784 291.401 425.553 289.828 425.477 288.244C425.456 287.529 425.557 286.816 425.777 286.136C426.858 282.951 430.583 281.644 433.875 281.043C437.166 280.442 440.861 279.925 442.927 277.278C443.48 276.399 444.08 275.551 444.724 274.737C445.672 273.87 446.836 273.28 448.092 273.028C452.178 271.988 456.494 272.373 460.334 274.121C461.927 274.852 463.526 275.837 465.273 275.725C467.087 275.61 468.636 274.325 470.427 274.012C473.32 273.508 476.086 275.688 477.512 278.271C478.417 279.914 478.87 281.77 478.824 283.648C478.858 285.517 478.187 287.331 476.947 288.723C475.702 290.052 473.844 290.965 473.327 292.715C473.116 293.428 473.165 294.195 472.979 294.914C472.956 295.004 472.918 295.088 472.888 295.175C472.922 295.22 472.959 295.262 472.993 295.307C475.17 298.194 476.63 301.564 477.25 305.134C477.87 308.705 477.632 312.372 476.556 315.832C475.48 319.291 473.598 322.441 471.066 325.019C468.533 327.597 465.425 329.528 462 330.652C461.991 330.877 461.983 331.103 461.984 331.33C461.92 332.734 462.156 334.136 462.678 335.441C463.199 336.746 463.992 337.923 465.005 338.892L484.738 347.034C484.738 347.034 496.618 345.585 500.905 363.422C501.592 366.386 501.84 369.437 501.639 372.475C501.483 375.164 501.847 379.899 504.892 386.026C509.764 395.83 508.657 418.335 498.691 420.563C489.251 422.673 485.579 421.787 485.217 421.687L485.195 422.081C485.351 426.304 486.845 462.725 492.268 467.132C493.768 468.35 493.481 469.174 492.251 469.728L492.254 469.732C492.254 469.732 492.264 469.966 492.287 470.387C492.45 473.051 493.287 483.194 496.918 488.967C501.127 495.651 500.685 534.2 500.685 534.2L503.562 556.928C503.562 556.928 501.791 570.965 503.562 573.415C504.568 574.804 505.786 596.326 506.653 614.701H580.63C587.337 614.701 593.771 612.021 598.514 607.249C603.257 602.476 605.921 596.004 605.922 589.256V260.142C605.922 256.801 605.267 253.492 603.996 250.405C602.725 247.317 600.862 244.512 598.514 242.149C596.165 239.786 593.377 237.912 590.308 236.633C587.24 235.355 583.951 234.696 580.63 234.696Z" fill="#1A9EBC"/>
<path d="M555.095 205.795H309.899C295.931 205.795 284.608 217.187 284.608 231.241V560.354C284.608 574.407 295.931 585.8 309.899 585.8H555.095C569.063 585.8 580.387 574.407 580.387 560.354V231.241C580.387 217.187 569.063 205.795 555.095 205.795Z" stroke="#3F3D56" stroke-miterlimit="10"/>
<path d="M137.922 744.957C205.785 741.921 259.939 720.227 258.877 696.503C257.816 672.778 201.941 656.007 134.078 659.043C66.2151 662.079 12.0616 683.773 13.123 707.497C14.1844 731.222 70.0588 747.993 137.922 744.957Z" fill="black" fill-opacity="0.1"/>
<path d="M145.892 276.248C145.892 276.248 135.972 273.296 133.844 276.508C131.716 279.719 136.745 302.999 136.745 302.999L158.605 304.335L150.976 284.953L145.892 276.248Z" fill="#2F2E41"/>
<path d="M69.4156 467.417C69.4156 467.417 89.3058 511.35 73.988 509.97C58.6703 508.59 52.7261 467.417 52.7261 467.417H69.4156Z" fill="#AC989B"/>
<path d="M199.502 462.84C199.502 462.84 190.776 510.311 205.306 505.241C219.836 500.171 215.695 458.775 215.695 458.775L199.502 462.84Z" fill="#AC989B"/>
<path d="M141.661 265.232C141.661 265.232 141.432 287.314 149.891 288.464C158.35 289.614 145.09 301.345 145.09 301.345L130.001 304.335L108.281 302.725L98.6792 290.304C98.6792 290.304 115.597 282.254 108.281 257.182L141.661 265.232Z" fill="#AC989B"/>
<path opacity="0.1" d="M141.661 265.232C141.661 265.232 141.432 287.314 149.891 288.464C158.35 289.614 145.09 301.345 145.09 301.345L130.001 304.335L108.281 302.725L98.6792 290.304C98.6792 290.304 115.597 282.254 108.281 257.182L141.661 265.232Z" fill="black"/>
<path d="M180.527 452.006C180.527 452.006 191.272 475.238 182.813 548.153C182.813 548.153 185.328 573.915 183.27 578.745C181.213 583.576 164.294 649.131 164.294 649.131C164.294 649.131 142.575 653.961 139.603 639.47C139.603 639.47 142.575 618.768 142.346 615.548C142.118 612.328 147.148 577.135 147.148 577.135L136.86 509.05L129.086 570.465C129.086 570.465 129.086 588.176 126.571 592.086C124.057 595.997 126.571 674.663 126.571 674.663C126.571 674.663 133.659 686.623 122.913 686.853C112.168 687.083 102.566 686.623 101.651 679.033C100.737 671.442 100.28 663.852 97.9936 659.251C95.7074 654.651 92.7353 601.977 93.4211 583.576C94.107 565.174 78.332 470.637 83.3617 460.747C88.3914 450.856 180.527 452.006 180.527 452.006Z" fill="#2F2E41"/>
<path d="M130.001 273.513C145.153 273.513 157.436 261.155 157.436 245.911C157.436 230.667 145.153 218.309 130.001 218.309C114.849 218.309 102.566 230.667 102.566 245.911C102.566 261.155 114.849 273.513 130.001 273.513Z" fill="#AC989B"/>
<path d="M102.566 290.764C102.566 290.764 119.255 303.185 143.49 293.294C143.49 293.294 151.491 289.384 150.805 283.404C150.12 277.423 167.495 331.477 167.495 331.477L185.099 425.554L184.185 463.967C184.185 463.967 176.411 460.057 152.177 468.797C127.943 477.538 88.3911 458.907 88.3911 458.907L89.7629 360.229L91.1346 302.725L94.7926 290.074C94.7926 290.074 96.6215 286.624 102.566 290.764Z" fill="#F2F2F2"/>
<path d="M142.423 275.323C142.423 275.323 146.462 274.663 150.348 280.873C154.235 287.084 163.38 290.994 163.38 290.994C163.38 290.994 185.556 292.374 188.757 304.335C191.958 316.296 199.96 332.627 203.846 362.759C207.733 392.892 215.506 440.965 216.649 444.876C217.792 448.786 215.049 460.747 218.249 464.427C221.45 468.107 195.616 468.107 195.616 468.107C195.616 468.107 193.33 449.246 191.729 449.246C190.129 449.246 190.586 461.897 192.186 471.098C193.787 480.298 180.527 471.098 180.527 471.098C180.527 471.098 170.238 429.004 160.408 391.052C150.577 353.099 144.861 332.167 146.69 323.657C148.519 315.146 153.549 290.764 149.891 288.464C146.233 286.164 142.423 275.323 142.423 275.323Z" fill="#2F2E41"/>
<path d="M109.454 275.303C109.454 275.303 103.48 278.573 88.3913 289.384C73.3021 300.195 63.0141 308.475 63.0141 308.475C63.0141 308.475 57.0698 313.076 53.4119 340.448C49.7539 367.82 41.5234 438.665 44.7242 447.636C47.9249 456.606 49.068 461.897 47.9249 467.187C46.7818 472.478 71.9304 472.248 72.3876 471.098C72.8449 469.947 71.7018 449.016 72.8449 448.556C73.988 448.096 80.1608 460.977 81.304 471.788C82.4471 482.598 95.7073 491.109 98.6794 491.109C101.652 491.109 116.969 428.774 117.198 386.221C117.427 343.668 112.168 307.785 108.282 302.725C104.395 297.665 109.454 275.303 109.454 275.303Z" fill="#2F2E41"/>
<path d="M149.662 651.201C149.662 651.201 151.491 646.14 157.893 647.75C164.294 649.36 168.638 643.61 168.638 643.61C168.638 643.61 172.067 643.15 169.781 647.52C167.495 651.891 165.666 654.881 165.666 654.881C165.666 654.881 179.383 686.393 170.467 693.984C161.551 701.574 151.263 696.974 151.263 696.974C151.263 696.974 141.203 689.844 141.661 670.982C141.661 670.982 141.203 665.002 135.716 655.341C130.229 645.68 126.114 630.959 132.744 628.199C139.374 625.439 141.081 625.336 141.081 625.336C141.081 625.336 137.978 639.613 145.992 644.602L149.662 651.201Z" fill="#3F3D56"/>
<path d="M107.138 686.853C107.138 686.853 101.651 676.503 110.796 675.353C119.941 674.202 129.772 673.512 129.315 678.343C128.858 683.173 127.714 690.534 127.714 690.534L129.315 695.824C129.315 695.824 129.772 708.935 131.372 710.545C132.973 712.155 141.661 725.956 123.142 725.956C104.623 725.956 99.1367 723.886 100.737 719.516C102.337 715.145 102.795 693.524 102.795 693.524L107.138 686.853Z" fill="#3F3D56"/>
<path d="M121.313 223.829C121.313 223.829 134.116 227.28 140.746 228.66C147.376 230.04 146.69 226.129 146.69 226.129C146.69 226.129 155.378 227.28 154.921 226.359C154.463 225.439 158.579 220.609 153.778 215.089C148.977 209.568 150.348 205.428 150.348 205.428H146.233L145.09 203.818H138.688C138.688 203.818 133.887 201.978 121.313 203.818C108.739 205.658 91.592 206.118 90.2202 213.709C88.8485 221.299 81.7611 230.73 84.276 235.1C86.7909 239.47 101.194 257.412 102.566 265.002C103.938 272.593 110.343 274.279 110.112 269.526C109.882 264.772 103.48 248.211 108.967 247.521C114.454 246.831 123.828 232.8 121.313 223.829Z" fill="#2F2E41"/>
<path d="M994.67 7.98267C990.134 8.2404 985.76 9.7641 982.037 12.3829C978.314 15.0017 975.39 18.6121 973.593 22.8093C968.322 35.6265 975.108 50.6822 985.295 60.0287C995.482 69.3751 1008.57 74.7175 1020.46 81.7397C1036.43 91.1716 1050.78 104.265 1058.77 121.072C1066.76 137.879 1067.61 158.698 1058.21 174.754C1049.5 189.657 1033.65 198.576 1018.53 206.803" stroke="#3F3D56" stroke-miterlimit="10"/>
<path d="M1008.1 18.1974C1018.38 18.1974 1026.72 14.1238 1026.72 9.09872C1026.72 4.07364 1018.38 0 1008.1 0C997.813 0 989.477 4.07364 989.477 9.09872C989.477 14.1238 997.813 18.1974 1008.1 18.1974Z" fill="#1A9EBC"/>
<path d="M1022.99 78.142C1033.27 78.142 1041.61 74.0683 1041.61 69.0432C1041.61 64.0182 1033.27 59.9445 1022.99 59.9445C1012.71 59.9445 1004.37 64.0182 1004.37 69.0432C1004.37 74.0683 1012.71 78.142 1022.99 78.142Z" fill="#1A9EBC"/>
<path d="M988.945 87.7759C999.228 87.7759 1007.56 83.7022 1007.56 78.6772C1007.56 73.6521 999.228 69.5784 988.945 69.5784C978.662 69.5784 970.326 73.6521 970.326 78.6772C970.326 83.7022 978.662 87.7759 988.945 87.7759Z" fill="#1A9EBC"/>
<path d="M1042.14 138.086C1052.43 138.086 1060.76 134.013 1060.76 128.988C1060.76 123.963 1052.43 119.889 1042.14 119.889C1031.86 119.889 1023.52 123.963 1023.52 128.988C1023.52 134.013 1031.86 138.086 1042.14 138.086Z" fill="#1A9EBC"/>
<path d="M1079.38 138.086C1089.66 138.086 1098 134.013 1098 128.988C1098 123.963 1089.66 119.889 1079.38 119.889C1069.1 119.889 1060.76 123.963 1060.76 128.988C1060.76 134.013 1069.1 138.086 1079.38 138.086Z" fill="#1A9EBC"/>
</svg>
