<svg width="199" height="36" viewBox="0 0 199 36" fill="none" xmlns="http://www.w3.org/2000/svg">
<path d="M15.8691 0.453125L20.2393 26.1611L33.4961 0.453125H43.0176L36.8408 36H29.6631L31.4209 25.8682L34.8877 10.0479L21.2646 36H16.3574L11.5967 9.14453L9.30176 26.6494L7.66602 36H0.512695L6.68945 0.453125H15.8691ZM64.5752 28.6758H52.1729L48.5107 36H40.625L59.6191 0.453125H66.2354L72.998 36H65.6982L64.5752 28.6758ZM55.1025 22.7432H63.6719L61.6699 9.51074L55.1025 22.7432ZM92.6514 12.6602L101.025 0.453125H109.619L96.5576 18.4219L103.931 36H96.0205L91.3574 23.5977L82.7881 36H74.0967L87.4512 17.7383L80.2979 0.453125H88.1104L92.6514 12.6602ZM116.992 23.4756L114.795 36H107.642L113.818 0.453125L126.27 0.477539C130.111 0.477539 133.13 1.54362 135.327 3.67578C137.524 5.80794 138.485 8.59115 138.208 12.0254C137.948 15.5085 136.491 18.2917 133.838 20.375C131.201 22.4583 127.832 23.5 123.73 23.5L116.992 23.4756ZM117.993 17.543L123.95 17.5918C125.871 17.5918 127.466 17.0954 128.735 16.1025C130.005 15.1097 130.762 13.7669 131.006 12.0742C131.25 10.3815 130.973 9.0306 130.176 8.02148C129.395 7.01237 128.231 6.47526 126.685 6.41016L119.946 6.38574L117.993 17.543ZM139.185 36L145.361 0.453125L156.445 0.477539C160.563 0.493815 163.656 1.33203 165.723 2.99219C167.79 4.65234 168.726 6.98796 168.53 9.99902C168.302 13.596 166.227 16.2246 162.305 17.8848C163.721 18.373 164.819 19.2926 165.601 20.6436C166.382 21.9782 166.715 23.557 166.602 25.3799C166.374 28.7327 165.055 31.3451 162.646 33.2168C160.254 35.0723 156.982 36 152.832 36H139.185ZM149.048 20.5215L147.363 30.1162L153.003 30.1406C154.761 30.1406 156.234 29.7093 157.422 28.8467C158.61 27.9678 159.318 26.7878 159.546 25.3066C159.774 23.8418 159.57 22.7025 158.936 21.8887C158.317 21.0586 157.267 20.611 155.786 20.5459L149.048 20.5215ZM149.927 15.3457L154.785 15.3945C156.592 15.362 158.065 14.9388 159.204 14.125C160.36 13.3112 161.051 12.18 161.279 10.7314C161.686 7.86686 160.181 6.42643 156.763 6.41016L151.489 6.38574L149.927 15.3457ZM198.291 4.77441L180.225 36H172.632L190.649 6.16602H173.657L174.561 0.453125H198.95L198.291 4.77441Z" fill="#12C2E9"/>
</svg>
