<svg width="288" height="30" viewBox="0 0 288 30" fill="none" xmlns="http://www.w3.org/2000/svg">
<path d="M12.3438 0.5625L15.8398 21.1289L26.4453 0.5625H34.0625L29.1211 29H23.3789L24.7852 20.8945L27.5586 8.23828L16.6602 29H12.7344L8.92578 7.51562L7.08984 21.5195L5.78125 29H0.0585938L5 0.5625H12.3438ZM51.3086 23.1406H41.3867L38.457 29H32.1484L47.3438 0.5625H52.6367L58.0469 29H52.207L51.3086 23.1406ZM43.7305 18.3945H50.5859L48.9844 7.80859L43.7305 18.3945ZM73.1055 18.5898H68.457L66.6406 29H60.918L65.8594 0.5625L75.2734 0.582031C78.4245 0.582031 80.8464 1.32422 82.5391 2.80859C84.2448 4.29297 85 6.35677 84.8047 9C84.5312 12.9062 82.4479 15.6211 78.5547 17.1445L82.5586 28.6875V29H76.4648L73.1055 18.5898ZM69.2773 13.8438L73.5352 13.8828C75.0456 13.8568 76.2891 13.4531 77.2656 12.6719C78.2552 11.8776 78.8477 10.8034 79.043 9.44922C79.2253 8.1862 79.0234 7.19661 78.4375 6.48047C77.8516 5.76432 76.9206 5.38021 75.6445 5.32812L70.7617 5.30859L69.2773 13.8438ZM85.8789 29L90.8203 0.5625L98.9844 0.582031C100.898 0.621094 102.617 1.05729 104.141 1.89062C105.677 2.71094 106.921 3.89583 107.871 5.44531C108.822 6.99479 109.395 8.73958 109.59 10.6797C109.694 11.8125 109.681 12.9714 109.551 14.1562L109.414 15.1914C108.841 19.3581 107.201 22.7044 104.492 25.2305C101.797 27.7435 98.5221 29 94.668 29H85.8789ZM95.7227 5.30859L92.4219 24.293L94.8047 24.3125C97.4349 24.3125 99.5443 23.349 101.133 21.4219C102.734 19.4948 103.652 16.5846 103.887 12.6914L103.926 12.0664C103.965 9.91797 103.555 8.27083 102.695 7.125C101.836 5.97917 100.553 5.38021 98.8477 5.32812L95.7227 5.30859ZM130.078 16.6758H119.18L117.852 24.293H130.664L129.844 29H111.309L116.25 0.5625H134.746L133.906 5.30859H121.152L119.961 12.0859H130.898L130.078 16.6758ZM148.984 21.4023C149.258 19.8529 148.496 18.668 146.699 17.8477L142.93 16.3438C138.555 14.3906 136.478 11.7018 136.699 8.27734C136.79 6.6888 137.311 5.28255 138.262 4.05859C139.212 2.83464 140.547 1.8776 142.266 1.1875C143.984 0.484375 145.84 0.145833 147.832 0.171875C150.579 0.223958 152.799 1.04427 154.492 2.63281C156.185 4.20833 157.018 6.32422 156.992 8.98047H151.289C151.354 7.69141 151.068 6.6888 150.43 5.97266C149.805 5.25651 148.828 4.88542 147.5 4.85938C146.198 4.83333 145.065 5.13281 144.102 5.75781C143.138 6.36979 142.565 7.21615 142.383 8.29688C142.135 9.71615 143.086 10.8424 145.234 11.6758L147.812 12.6523L149.297 13.3359C153.138 15.237 154.935 17.9062 154.688 21.3438C154.57 23.0234 154.03 24.4753 153.066 25.6992C152.116 26.9102 150.814 27.8411 149.16 28.4922C147.52 29.1432 145.71 29.4492 143.73 29.4102C141.712 29.3711 139.915 28.9479 138.34 28.1406C136.764 27.3333 135.566 26.194 134.746 24.7227C133.978 23.3555 133.62 21.793 133.672 20.0352L139.395 20.0547C139.212 23.1406 140.729 24.7096 143.945 24.7617C145.339 24.7617 146.484 24.4557 147.383 23.8438C148.281 23.2318 148.815 22.418 148.984 21.4023ZM168.828 29.3906C166.94 29.3516 165.273 28.9089 163.828 28.0625C162.396 27.2031 161.257 25.9727 160.41 24.3711C159.577 22.7565 159.095 20.9076 158.965 18.8242C158.822 16.6888 159.049 14.4102 159.648 11.9883C160.247 9.56641 161.211 7.4375 162.539 5.60156C163.867 3.76562 165.423 2.39193 167.207 1.48047C169.004 0.56901 170.944 0.132812 173.027 0.171875C174.941 0.210938 176.615 0.666667 178.047 1.53906C179.479 2.39844 180.605 3.64193 181.426 5.26953C182.246 6.88411 182.715 8.72005 182.832 10.7773C182.962 13.069 182.715 15.4258 182.09 17.8477C181.465 20.2695 180.495 22.3659 179.18 24.1367C177.865 25.9076 176.322 27.2357 174.551 28.1211C172.793 29.0065 170.885 29.4297 168.828 29.3906ZM176.934 14L177.09 12.1445C177.22 9.82682 176.908 8.06901 176.152 6.87109C175.41 5.67318 174.277 5.04818 172.754 4.99609C170.371 4.91797 168.477 5.97266 167.07 8.16016C165.677 10.3477 164.889 13.4076 164.707 17.3398C164.577 19.6445 164.883 21.4219 165.625 22.6719C166.367 23.9089 167.52 24.5534 169.082 24.6055C171.126 24.6966 172.819 23.9023 174.16 22.2227C175.501 20.5299 176.38 18.1406 176.797 15.0547L176.934 14ZM206.875 29H201.328L193.418 10.0352L190.117 29H184.395L189.336 0.5625H194.863L202.793 19.5664L206.094 0.5625H211.797L206.875 29Z" fill="#12C2E9"/>
<path d="M212.012 29L216.953 0.5625L225.117 0.582031C227.031 0.621094 228.75 1.05729 230.273 1.89062C231.81 2.71094 233.053 3.89583 234.004 5.44531C234.954 6.99479 235.527 8.73958 235.723 10.6797C235.827 11.8125 235.814 12.9714 235.684 14.1562L235.547 15.1914C234.974 19.3581 233.333 22.7044 230.625 25.2305C227.93 27.7435 224.655 29 220.801 29H212.012ZM221.855 5.30859L218.555 24.293L220.938 24.3125C223.568 24.3125 225.677 23.349 227.266 21.4219C228.867 19.4948 229.785 16.5846 230.02 12.6914L230.059 12.0664C230.098 9.91797 229.688 8.27083 228.828 7.125C227.969 5.97917 226.686 5.38021 224.98 5.32812L221.855 5.30859ZM256.211 16.6758H245.312L243.984 24.293H256.797L255.977 29H237.441L242.383 0.5625H260.879L260.039 5.30859H247.285L246.094 12.0859H257.031L256.211 16.6758ZM270.898 21.8906L280.469 0.5625H287.031L272.988 29H267.012L261.895 0.5625H268.047L270.898 21.8906Z" fill="#C471ED"/>
</svg>
