<svg width="207" height="44" viewBox="0 0 207 44" fill="none" xmlns="http://www.w3.org/2000/svg">
<g filter="url(#filter0_d)">
<path d="M19.8691 0.453125L24.2393 26.1611L37.4961 0.453125H47.0176L40.8408 36H33.6631L35.4209 25.8682L38.8877 10.0479L25.2646 36H20.3574L15.5967 9.14453L13.3018 26.6494L11.666 36H4.5127L10.6895 0.453125H19.8691ZM68.5752 28.6758H56.1729L52.5107 36H44.625L63.6191 0.453125H70.2354L76.998 36H69.6982L68.5752 28.6758ZM59.1025 22.7432H67.6719L65.6699 9.51074L59.1025 22.7432ZM96.6514 12.6602L105.025 0.453125H113.619L100.558 18.4219L107.931 36H100.021L95.3574 23.5977L86.7881 36H78.0967L91.4512 17.7383L84.2979 0.453125H92.1104L96.6514 12.6602ZM120.992 23.4756L118.795 36H111.642L117.818 0.453125L130.27 0.477539C134.111 0.477539 137.13 1.54362 139.327 3.67578C141.524 5.80794 142.485 8.59115 142.208 12.0254C141.948 15.5085 140.491 18.2917 137.838 20.375C135.201 22.4583 131.832 23.5 127.73 23.5L120.992 23.4756ZM121.993 17.543L127.95 17.5918C129.871 17.5918 131.466 17.0954 132.735 16.1025C134.005 15.1097 134.762 13.7669 135.006 12.0742C135.25 10.3815 134.973 9.0306 134.176 8.02148C133.395 7.01237 132.231 6.47526 130.685 6.41016L123.946 6.38574L121.993 17.543ZM143.185 36L149.361 0.453125L160.445 0.477539C164.563 0.493815 167.656 1.33203 169.723 2.99219C171.79 4.65234 172.726 6.98796 172.53 9.99902C172.302 13.596 170.227 16.2246 166.305 17.8848C167.721 18.373 168.819 19.2926 169.601 20.6436C170.382 21.9782 170.715 23.557 170.602 25.3799C170.374 28.7327 169.055 31.3451 166.646 33.2168C164.254 35.0723 160.982 36 156.832 36H143.185ZM153.048 20.5215L151.363 30.1162L157.003 30.1406C158.761 30.1406 160.234 29.7093 161.422 28.8467C162.61 27.9678 163.318 26.7878 163.546 25.3066C163.774 23.8418 163.57 22.7025 162.936 21.8887C162.317 21.0586 161.267 20.611 159.786 20.5459L153.048 20.5215ZM153.927 15.3457L158.785 15.3945C160.592 15.362 162.065 14.9388 163.204 14.125C164.36 13.3112 165.051 12.18 165.279 10.7314C165.686 7.86686 164.181 6.42643 160.763 6.41016L155.489 6.38574L153.927 15.3457ZM202.291 4.77441L184.225 36H176.632L194.649 6.16602H177.657L178.561 0.453125H202.95L202.291 4.77441Z" fill="#12C2E9"/>
</g>
<defs>
<filter id="filter0_d" x="0.512695" y="0.453125" width="206.438" height="43.5469" filterUnits="userSpaceOnUse" color-interpolation-filters="sRGB">
<feFlood flood-opacity="0" result="BackgroundImageFix"/>
<feColorMatrix in="SourceAlpha" type="matrix" values="0 0 0 0 0 0 0 0 0 0 0 0 0 0 0 0 0 0 127 0"/>
<feOffset dy="4"/>
<feGaussianBlur stdDeviation="2"/>
<feColorMatrix type="matrix" values="0 0 0 0 0 0 0 0 0 0 0 0 0 0 0 0 0 0 0.25 0"/>
<feBlend mode="normal" in2="BackgroundImageFix" result="effect1_dropShadow"/>
<feBlend mode="normal" in="SourceGraphic" in2="effect1_dropShadow" result="shape"/>
</filter>
</defs>
</svg>
