<svg width="115" height="108" viewBox="0 0 115 108" fill="none" xmlns="http://www.w3.org/2000/svg">
<path fill-rule="evenodd" clip-rule="evenodd" d="M44 83C65.5391 83 83 65.5391 83 44C83 22.4609 65.5391 5 44 5C22.4609 5 5 22.4609 5 44C5 65.5391 22.4609 83 44 83ZM44 88C55.4513 88 65.8809 83.6255 73.7087 76.4564L109.85 106.584C111.107 107.632 112.975 107.462 114.022 106.205C115.07 104.949 114.901 103.081 113.644 102.033L77.8092 72.1608C84.1719 64.5302 88 54.7121 88 44C88 19.6995 68.3005 0 44 0C19.6995 0 0 19.6995 0 44C0 68.3005 19.6995 88 44 88ZM30.5 39C32.9852 39 35 36.9853 35 34.5C35 32.0147 32.9852 30 30.5 30C28.0148 30 26 32.0147 26 34.5C26 36.9853 28.0148 39 30.5 39ZM61 34.5C61 36.9853 58.9852 39 56.5 39C54.0148 39 52 36.9853 52 34.5C52 32.0147 54.0148 30 56.5 30C58.9852 30 61 32.0147 61 34.5ZM22.024 56.4368C21.0981 56.7687 20.5 57.6479 20.5 58.6315C20.5 60.2762 22.126 61.4445 23.6973 60.959C28.4949 59.4766 37.7159 56.9412 44.5 57C50.9478 57.0558 59.6674 59.4938 64.2987 60.9443C65.8699 61.4363 67.5 60.2692 67.5 58.6227C67.5 57.6437 66.9075 56.7681 65.9873 56.4337C62.1621 55.0435 51.8833 51.5697 44.5 51.5C36.7762 51.427 25.9747 55.0203 22.024 56.4368Z" fill="#F15267"/>
</svg>
